<svg width="24" height="24" viewBox="0 0 24 24" fill="none" xmlns="http://www.w3.org/2000/svg">
<path d="M1.46719 3.64205C1.33125 3.68424 1.21875 3.7358 1.21875 3.75924C1.21875 3.78737 3.55313 6.14518 6.4125 9.00455L11.6016 14.1983L11.8266 14.2311C12.3469 14.3014 11.9438 14.6624 17.6203 8.97643C20.4609 6.13112 22.7812 3.78268 22.7812 3.75924C22.7812 3.7358 22.6594 3.67955 22.5094 3.63737C22.2609 3.56705 21.3281 3.56237 11.9719 3.56705C2.85469 3.57174 1.68281 3.57643 1.46719 3.64205Z" fill="#196E4F"/>
<path d="M0.112594 4.93118C0.0282195 5.12336 0.023532 5.42336 0.00946949 11.9015C9.44869e-05 17.8171 0.00946949 18.7031 0.070407 18.9093C0.107907 19.0406 0.159469 19.1812 0.187594 19.2187C0.225094 19.2749 0.96572 18.5577 3.87666 15.6468L7.52353 11.9999L3.89072 8.36711C1.89384 6.37024 0.243844 4.7343 0.229782 4.7343C0.211032 4.7343 0.159469 4.82336 0.112594 4.93118Z" fill="#196E4F"/>
<path d="M20.1094 8.36711L16.4766 11.9999L20.1234 15.6468C23.0344 18.5577 23.775 19.2749 23.8125 19.2187C23.8406 19.1812 23.8922 19.0406 23.9297 18.9093C23.9906 18.7031 24 17.8171 23.9906 11.9015C23.9766 5.42336 23.9719 5.12336 23.8875 4.93118C23.8406 4.82336 23.7891 4.7343 23.7703 4.7343C23.7562 4.7343 22.1062 6.37024 20.1094 8.36711Z" fill="#196E4F"/>
<path d="M4.81406 16.5937C2.83594 18.5766 1.21875 20.2172 1.21875 20.2406C1.21875 20.2641 1.34063 20.3203 1.49063 20.3625C1.73906 20.4328 2.67656 20.4375 12 20.4375C21.3234 20.4375 22.2609 20.4328 22.5094 20.3625C22.6594 20.3203 22.7812 20.2641 22.7812 20.2406C22.7812 20.2172 21.1594 18.5719 19.1766 16.5797L15.5719 12.9609L14.4281 14.0906C13.4625 15.0516 13.2422 15.2437 12.9844 15.3656C12.3516 15.675 11.6438 15.675 11.0203 15.3703C10.7578 15.2437 10.5422 15.0562 9.58125 14.1C8.9625 13.4859 8.44219 12.9844 8.42813 12.9844C8.41875 12.9844 6.7875 14.6062 4.81406 16.5937Z" fill="#196E4F"/>
</svg>
