<svg width="54" height="54" viewBox="0 0 54 54" fill="none" xmlns="http://www.w3.org/2000/svg">
<g clip-path="url(#clip0_58_142)">
<path d="M23.8887 0.748829C15.9469 1.69805 8.78555 6.26484 4.53516 13.0781C2.62617 16.1367 1.27617 19.9547 0.791016 23.6566C0.580078 25.302 0.580078 28.698 0.791016 30.3434C1.56094 36.2074 4.15547 41.502 8.33203 45.668C11.7387 49.0852 16.0102 51.5109 20.5875 52.6289C23.0449 53.2301 23.8465 53.3145 27.0527 53.3145C29.6684 53.3145 30.1641 53.2828 31.3559 53.0719C34.2035 52.5551 36.6398 51.743 39.0762 50.4773C41.6918 49.1273 43.6219 47.7246 45.668 45.668C47.8195 43.527 49.2012 41.6074 50.6355 38.7598C51.9855 36.0809 52.8082 33.3809 53.209 30.3434C53.4199 28.698 53.4199 25.302 53.209 23.6566C52.4391 17.7926 49.834 12.498 45.668 8.33203C43.4637 6.11719 41.3227 4.59844 38.4434 3.20625C36.0914 2.06719 34.1086 1.43438 31.3559 0.938671C30.3539 0.759373 29.5945 0.706638 27.4219 0.674999C25.9453 0.664452 24.3527 0.696095 23.8887 0.748829ZM36.3973 11.3062C40.3629 12.3926 42.5461 14.9555 43.1262 19.227C43.2844 20.3449 43.2844 33.6551 43.1262 34.773C42.5461 39.0445 40.3734 41.5969 36.3973 42.6937L35.3848 42.9785H27H18.6152L17.6027 42.6937C13.6477 41.6074 11.4012 38.9812 10.8633 34.8047C10.7367 33.7711 10.7367 20.2289 10.8633 19.1953C11.4539 14.6918 14.0484 11.9391 18.4992 11.1164C19.0793 11.0109 21.0727 10.9898 27.3164 11.0004L35.3848 11.0215L36.3973 11.3062Z" fill="url(#paint0_linear_58_142)"/>
<path d="M20.0918 13.9219C17.1914 14.1117 15.3984 15.1453 14.407 17.2125C13.6582 18.8051 13.6582 18.7945 13.6582 27.1055C13.6688 34.4672 13.6688 34.5516 13.9008 35.3848C14.2383 36.6082 14.7023 37.4625 15.4195 38.243C16.1156 38.9813 17.0648 39.5192 18.1934 39.8145C19.3113 40.1098 22.2539 40.2047 28.4766 40.152C35.2055 40.0992 35.5746 40.0676 37.0828 39.3399C38.6227 38.6016 39.6984 37.1356 40.152 35.1738C40.3313 34.3934 40.3418 33.7395 40.3418 27C40.3418 20.2606 40.3313 19.6066 40.152 18.8262C39.6984 16.8645 38.6227 15.3984 37.0828 14.6602C35.543 13.9219 35.2688 13.9008 27.9492 13.8691C24.3844 13.8481 20.8512 13.8797 20.0918 13.9219ZM36.4395 17.0754C36.6082 17.1703 36.8613 17.4234 36.9984 17.6238C37.2094 17.9191 37.241 18.0879 37.2094 18.5941C37.1672 19.0793 37.1039 19.2586 36.8508 19.5223C36.2707 20.1445 35.6063 20.2922 34.9102 19.9336C33.5391 19.2375 33.7289 17.3285 35.216 16.8645C35.5641 16.759 36.0281 16.8434 36.4395 17.0754ZM29.0566 18.7313C32.3895 19.6277 34.8047 22.2434 35.3848 25.5762C35.5852 26.7363 35.5852 27.2637 35.3848 28.4238C34.8047 31.725 32.4527 34.309 29.1516 35.2477C28.0652 35.5535 26.0402 35.5746 24.9961 35.2899C21.5684 34.3512 19.2059 31.7777 18.6047 28.3606C17.7926 23.7094 21.0621 19.3008 25.8926 18.5203C26.4832 18.4359 28.4133 18.552 29.0566 18.7313Z" fill="url(#paint1_linear_58_142)"/>
<path d="M25.8928 21.5156C24.5955 21.7793 23.3721 22.5598 22.5389 23.6461C21.0623 25.5973 21.0517 28.3605 22.5178 30.3223C24.374 32.8113 27.9072 33.3176 30.3541 31.4613C33.3178 29.1938 33.3178 24.8063 30.3541 22.5387C29.099 21.5895 27.4326 21.2098 25.8928 21.5156Z" fill="url(#paint2_linear_58_142)"/>
</g>
<defs>
<linearGradient id="paint0_linear_58_142" x1="27" y1="53.3145" x2="27" y2="0.672981" gradientUnits="userSpaceOnUse">
<stop offset="0.197917" stop-color="#196E4F"/>
<stop offset="1" stop-color="#5BBF9B"/>
</linearGradient>
<linearGradient id="paint1_linear_58_142" x1="27" y1="40.1658" x2="27" y2="13.8624" gradientUnits="userSpaceOnUse">
<stop offset="0.197917" stop-color="#196E4F"/>
<stop offset="1" stop-color="#5BBF9B"/>
</linearGradient>
<linearGradient id="paint2_linear_58_142" x1="27.0008" y1="32.5794" x2="27.0008" y2="21.412" gradientUnits="userSpaceOnUse">
<stop offset="0.197917" stop-color="#196E4F"/>
<stop offset="1" stop-color="#5BBF9B"/>
</linearGradient>
<clipPath id="clip0_58_142">
<rect width="54" height="54" fill="white"/>
</clipPath>
</defs>
</svg>
