<svg width="29" height="26" viewBox="0 0 29 26" fill="none" xmlns="http://www.w3.org/2000/svg">
<path d="M22.8437 0.968739C22.3209 1.12733 0.97257 9.5328 0.805742 9.64764C0.688963 9.72967 0.572183 9.83358 0.538818 9.88827C0.511013 9.94842 0.48877 12.8633 0.48877 17.364V24.7414L0.627793 24.8781C0.705645 24.9547 0.844668 25.0312 0.939204 25.0531C1.25618 25.1133 24.4675 25.0914 24.6955 25.0258C24.84 24.9875 24.9401 24.9109 25.0124 24.7961C25.1181 24.6265 25.1236 24.4844 25.1236 20.6562V16.6914L26.892 16.0078C28.8383 15.2586 28.9607 15.1875 28.9607 14.8156C28.9607 14.6515 28.2489 12.8305 26.2859 7.98514C24.8122 4.35389 23.5777 1.31327 23.5332 1.23124C23.4109 1.00155 23.1106 0.886707 22.8437 0.968739ZM25.1515 8.32967C26.4972 11.6547 27.6038 14.3945 27.6149 14.4219C27.6261 14.4437 27.0644 14.6844 26.3749 14.9578L25.1236 15.45V12.7594V10.0633L24.9957 9.87733C24.9235 9.77342 24.7956 9.67499 24.701 9.64764C24.5342 9.59842 24.5008 9.53827 23.9837 8.24764C23.3275 6.61249 23.2051 6.36092 23.0494 6.28436C22.9827 6.25155 22.6657 6.21327 22.3432 6.19686C21.5313 6.15858 21.0197 5.98905 20.4191 5.54608C20.23 5.40936 19.9965 5.20155 19.8964 5.07577C19.6684 4.79686 19.4181 4.70936 19.1345 4.80233C19.0178 4.83514 17.3217 5.49139 15.3642 6.25702C13.4068 7.02264 10.8321 8.03436 9.63648 8.4992C8.29074 9.0242 7.41212 9.39608 7.32314 9.47811L7.18412 9.60936L5.60482 9.59842L4.02551 9.58202L7.55114 8.19842C9.4919 7.43827 13.6848 5.79764 16.8657 4.55077C20.0465 3.30389 22.6602 2.28671 22.6768 2.28671C22.6935 2.28124 23.8057 5.00467 25.1515 8.32967ZM19.318 6.16952C19.4793 6.34999 20.0521 6.7328 20.4302 6.91874C20.8584 7.13202 21.3089 7.2578 21.8983 7.33436L22.371 7.39999L22.7992 8.46092C23.0327 9.04608 23.2274 9.54374 23.2329 9.56561C23.2329 9.59295 20.2634 9.60936 16.6321 9.60936H10.0257L14.5301 7.83202C17.0103 6.85858 19.0734 6.06014 19.1234 6.06014C19.1735 6.05467 19.2569 6.10936 19.318 6.16952ZM23.9559 17.3476V23.9375H12.8062H1.65656V17.3476V10.7578H12.8062H23.9559V17.3476Z" fill="url(#paint0_linear_80_195)"/>
<path d="M5.83832 11.8461C5.54359 11.8953 5.4435 12.0047 5.27111 12.4258C5.0876 12.8852 4.7039 13.4484 4.36468 13.7383C4.06995 13.9898 3.5083 14.307 3.14684 14.4219C3.03006 14.4547 2.88548 14.5477 2.82431 14.6242C2.71865 14.7609 2.71309 14.8375 2.71309 17.3422C2.71309 20.3117 2.6686 20.0656 3.29698 20.3172C4.27014 20.7109 4.89297 21.318 5.27111 22.2367C5.37121 22.4828 5.50467 22.718 5.56584 22.7617C5.6715 22.8328 6.62797 22.8438 12.7839 22.8438C19.8129 22.8438 19.8852 22.8438 20.0242 22.7344C20.1021 22.6742 20.1966 22.532 20.23 22.4172C20.3468 22.0617 20.6693 21.5094 20.9251 21.2195C21.231 20.875 21.7982 20.4977 22.282 20.3227C22.9103 20.0875 22.8714 20.2898 22.8714 17.3477C22.8714 14.3836 22.927 14.6297 22.1986 14.3289C21.3144 13.9625 20.6582 13.3117 20.2967 12.4312C20.0187 11.7531 20.8806 11.8242 12.9563 11.8187C9.17488 11.8133 5.97179 11.8242 5.83832 11.8461ZM19.3903 13.2844C19.6405 13.7766 20.0798 14.3344 20.458 14.6406C20.7916 14.9141 21.3422 15.2531 21.559 15.3242C21.6758 15.357 21.6758 15.368 21.6758 17.3258V19.2891L21.3867 19.4312C20.508 19.8633 19.596 20.7875 19.3291 21.5094L19.2624 21.6953H12.795H6.32768L6.1831 21.4109C5.73823 20.5414 5.05423 19.8687 4.17561 19.4312L3.88088 19.2891L3.88644 17.3312V15.3789L4.27571 15.193C5.02087 14.832 5.74379 14.1211 6.14974 13.3445L6.35549 12.9453H12.7839H19.2123L19.3903 13.2844Z" fill="url(#paint1_linear_80_195)"/>
<path d="M11.9163 14.1211C11.4547 14.2469 10.8486 14.575 10.5038 14.8922C10.0701 15.2859 9.79202 15.707 9.58626 16.2813C9.44168 16.6805 9.41943 16.8227 9.41943 17.3203C9.41943 17.9766 9.51397 18.3539 9.8087 18.9063C10.198 19.6391 10.9209 20.2352 11.7272 20.4977C12.2666 20.6727 13.301 20.6836 13.7792 20.525C14.3408 20.3391 14.7412 20.093 15.1694 19.6719C16.2149 18.6492 16.4596 17.1672 15.8034 15.8438C15.6477 15.532 15.4864 15.3242 15.1472 14.9961C14.6578 14.5203 14.2352 14.2797 13.6346 14.1266C13.2175 14.0227 12.3056 14.0172 11.9163 14.1211ZM13.6791 15.3734C14.352 15.6906 14.8191 16.2867 14.9525 17.0031C15.1249 17.9219 14.5966 18.8789 13.6791 19.3055C13.3399 19.4641 13.2565 19.4805 12.7782 19.4805C12.2889 19.4805 12.2166 19.4641 11.8718 19.3C10.0812 18.4305 10.2035 15.9695 12.072 15.2914C12.5113 15.1328 13.2565 15.1711 13.6791 15.3734Z" fill="url(#paint2_linear_80_195)"/>
<path d="M6.22771 16.5929C5.62157 16.8827 5.63269 17.796 6.24439 18.0859C6.53912 18.2281 6.73375 18.2226 7.03404 18.0804C7.64018 17.7906 7.6513 16.8992 7.04516 16.5984C6.8116 16.4781 6.46683 16.4726 6.22771 16.5929ZM6.82828 17.1835C6.86721 17.2273 6.88389 17.3202 6.86165 17.3968C6.81716 17.5773 6.62809 17.632 6.48907 17.5062C6.36117 17.3913 6.35561 17.3038 6.47239 17.189C6.5836 17.0796 6.73931 17.0796 6.82828 17.1835Z" fill="url(#paint3_linear_80_195)"/>
<path d="M18.5062 16.6039C18.2337 16.7461 18.0447 17.1125 18.078 17.4242C18.1448 18.0312 18.8343 18.3812 19.3626 18.075C19.9187 17.7523 19.9298 16.9375 19.3848 16.6094C19.1513 16.4726 18.762 16.4672 18.5062 16.6039ZM19.1179 17.1836C19.1569 17.2273 19.1735 17.3203 19.1513 17.3969C19.1068 17.5773 18.9177 17.632 18.7787 17.5062C18.6508 17.3914 18.6452 17.3039 18.762 17.189C18.8732 17.0797 19.029 17.0797 19.1179 17.1836Z" fill="url(#paint4_linear_80_195)"/>
<defs>
<linearGradient id="paint0_linear_80_195" x1="14.7247" y1="25.0884" x2="14.7247" y2="0.942307" gradientUnits="userSpaceOnUse">
<stop stop-color="#5BBF9B"/>
<stop offset="0.471312" stop-color="#196E4F"/>
</linearGradient>
<linearGradient id="paint1_linear_80_195" x1="12.7924" y1="22.8438" x2="12.7924" y2="11.8174" gradientUnits="userSpaceOnUse">
<stop stop-color="#5BBF9B"/>
<stop offset="0.471312" stop-color="#196E4F"/>
</linearGradient>
<linearGradient id="paint2_linear_80_195" x1="12.7931" y1="20.6368" x2="12.7931" y2="14.0458" gradientUnits="userSpaceOnUse">
<stop stop-color="#5BBF9B"/>
<stop offset="0.471312" stop-color="#196E4F"/>
</linearGradient>
<linearGradient id="paint3_linear_80_195" x1="6.63677" y1="18.1898" x2="6.63677" y2="16.5054" gradientUnits="userSpaceOnUse">
<stop stop-color="#5BBF9B"/>
<stop offset="0.471312" stop-color="#196E4F"/>
</linearGradient>
<linearGradient id="paint4_linear_80_195" x1="18.9305" y1="18.1879" x2="18.9305" y2="16.504" gradientUnits="userSpaceOnUse">
<stop stop-color="#5BBF9B"/>
<stop offset="0.471312" stop-color="#196E4F"/>
</linearGradient>
</defs>
</svg>
