<svg width="54" height="54" viewBox="0 0 54 54" fill="none" xmlns="http://www.w3.org/2000/svg">
<g clip-path="url(#clip0_58_151)">
<path d="M23.5194 0.168751C12.7405 1.55039 3.78617 9.35508 0.896329 19.8809C0.274063 22.1695 0.0842196 23.509 0.0314852 26.2406C-0.031796 28.9301 0.0631258 30.259 0.485001 32.3367C1.87719 39.382 6.11703 45.6469 12.1815 49.6336C15.6725 51.9223 19.501 53.325 23.7303 53.8523C25.3334 54.0527 28.7084 54.0422 30.3748 53.8418C38.2639 52.8609 45.3092 48.4418 49.7073 41.7129C51.9221 38.3273 53.3354 34.4355 53.8416 30.375C54.0526 28.6664 54.0526 25.3336 53.8416 23.625C52.8713 15.7781 48.4733 8.74336 41.8182 4.36641C38.3483 2.08828 34.4881 0.674999 30.3748 0.158203C28.7612 -0.0421867 25.0909 -0.0316391 23.5194 0.168751ZM39.8565 16.6641C40.2151 17.0332 40.3416 17.5289 40.2467 18.1723C40.0252 19.5328 35.7221 39.5613 35.5745 39.8988C35.353 40.4051 34.8784 40.8164 34.5092 40.8164C33.9819 40.8059 33.3807 40.4262 30.1323 38.032C28.3393 36.7137 26.81 35.6062 26.7256 35.5746C26.6307 35.543 25.9135 36.1652 24.7745 37.241C22.876 39.0656 22.8338 39.0973 22.3592 39.2344C22.0745 39.3187 22.0639 39.3082 22.1061 38.9285C22.1272 38.7176 22.2221 37.4309 22.3065 36.0703C22.3909 34.7098 22.4963 33.3492 22.528 33.0434L22.5807 32.4949L28.9088 26.7891C32.9377 23.1398 35.2264 21.0094 35.2264 20.8828C35.2264 20.6086 34.8889 20.5242 34.467 20.7035C34.2772 20.7879 30.6491 23.0449 26.4092 25.7133L18.6995 30.5648L16.0205 29.7316C14.544 29.2676 12.9514 28.7719 12.4873 28.6242C11.0846 28.2023 10.726 27.6434 11.4327 27.0211C11.6436 26.8418 12.403 26.4727 13.2995 26.1246C14.1327 25.7977 20.1549 23.4668 26.6834 20.9461C35.9541 17.3707 38.6541 16.3582 39.0444 16.3582C39.4557 16.3477 39.5823 16.4004 39.8565 16.6641Z" fill="url(#paint0_linear_58_151)"/>
</g>
<defs>
<linearGradient id="paint0_linear_58_151" x1="27.0068" y1="53.9975" x2="27.0068" y2="0.0130806" gradientUnits="userSpaceOnUse">
<stop offset="0.244792" stop-color="#196E4F"/>
<stop offset="1" stop-color="#5BBF9B"/>
</linearGradient>
<clipPath id="clip0_58_151">
<rect width="54" height="54" fill="white"/>
</clipPath>
</defs>
</svg>
