<svg width="54" height="54" viewBox="0 0 54 54" fill="none" xmlns="http://www.w3.org/2000/svg">
<g clip-path="url(#clip0_58_147)">
<path d="M23.5724 0.158203C18.6997 0.791016 14.2384 2.65781 10.336 5.67422C9.10205 6.63398 7.00322 8.70117 5.98018 9.9668C3.06924 13.5738 1.13916 17.8348 0.316504 22.4754C0.0211914 24.1207 -0.0948242 28.0758 0.0950195 29.8793C0.959863 37.9582 5.42119 45.225 12.2872 49.7074C15.7044 51.9328 19.554 53.3355 23.7306 53.8523C25.3337 54.0527 28.7087 54.0422 30.3751 53.8418C42.6095 52.323 52.3231 42.6094 53.8419 30.375C54.0528 28.6664 54.0528 25.3336 53.8419 23.625C52.8716 15.7781 48.4735 8.74336 41.8185 4.36641C38.3485 2.08828 34.4884 0.674999 30.3751 0.158203C28.772 -0.0316391 25.0911 -0.0316391 23.5724 0.158203ZM30.6177 10.7578C37.9267 12.1816 43.3056 18.4043 43.6325 25.8398C43.8435 30.5859 42.0821 34.8891 38.57 38.243C33.845 42.757 26.7786 43.9277 20.8724 41.1645L19.8599 40.6898L15.6517 41.7973C13.3419 42.3984 11.4329 42.8836 11.4118 42.873C11.3907 42.8625 11.8864 41.0062 12.4981 38.7598L13.6267 34.6676L13.0888 33.5496C12.0024 31.2398 11.6122 29.6262 11.5278 27.0527C11.4856 25.5445 11.5067 25.0594 11.686 23.9941C12.9306 16.7379 18.7313 11.3063 26.1036 10.5047C27.0423 10.4098 29.5103 10.5363 30.6177 10.7578Z" fill="url(#paint0_linear_58_147)"/>
<path d="M25.7555 13.1836C20.6508 13.9008 16.4109 17.4445 14.7656 22.3383C14.3227 23.6566 14.1328 24.9223 14.1328 26.5254C14.1328 29.2043 14.734 31.398 16.0945 33.6551L16.4426 34.2351L15.7676 36.7031C15.3984 38.0637 15.1031 39.1816 15.1242 39.2027C15.1348 39.2133 16.2844 38.9285 17.666 38.5699L20.1867 37.9055L21.1676 38.4117C23.3086 39.5402 25.1332 39.9937 27.5801 39.9937C29.3203 39.9937 30.6703 39.7828 32.0836 39.2766C36.0809 37.8422 39.1605 34.6359 40.4367 30.5859C40.9008 29.1199 41.059 27.8859 40.9957 26.0508C40.9219 23.8992 40.5633 22.4437 39.6668 20.6191C37.8105 16.8855 34.5516 14.3121 30.4805 13.384C29.4469 13.1414 26.8102 13.0359 25.7555 13.1836ZM23.2453 19.4273C23.5195 19.8387 24.7852 22.9816 24.7852 23.2242C24.7852 23.3613 24.5004 23.8465 24.1523 24.3105C23.7727 24.8168 23.5195 25.2598 23.5195 25.418C23.5195 26.0719 25.3863 28.3078 26.7258 29.2676C27.5379 29.8371 28.9828 30.5754 29.4574 30.6598C29.7844 30.7125 29.8477 30.6598 30.3328 30.1008C30.6281 29.7527 31.0184 29.2781 31.2082 29.025C31.4297 28.7508 31.6406 28.582 31.7777 28.582C31.9043 28.582 32.8219 28.9828 33.8133 29.468C35.1 30.0902 35.6484 30.4172 35.7012 30.5754C35.775 30.8285 35.6168 31.7883 35.4059 32.2945C35.0367 33.1805 33.5074 34.1297 32.2523 34.2457C31.377 34.3195 30.5332 34.1613 29.2148 33.6762C27.8859 33.1805 26.7258 32.6004 25.7449 31.9254C24.7535 31.2504 22.4016 28.9301 21.5578 27.791C19.9969 25.6711 19.459 24.4055 19.459 22.834C19.4695 21.7266 19.691 21.0832 20.3977 20.1551C21.0094 19.343 21.2941 19.1953 22.275 19.1953C23.0027 19.1953 23.1082 19.2164 23.2453 19.4273Z" fill="url(#paint1_linear_58_147)"/>
</g>
<defs>
<linearGradient id="paint0_linear_58_147" x1="27.0013" y1="53.9975" x2="27.0013" y2="0.0158195" gradientUnits="userSpaceOnUse">
<stop offset="0.21875" stop-color="#196E4F"/>
<stop offset="1" stop-color="#5BBF9B"/>
</linearGradient>
<linearGradient id="paint1_linear_58_147" x1="27.5709" y1="39.9937" x2="27.5709" y2="13.1158" gradientUnits="userSpaceOnUse">
<stop offset="0.21875" stop-color="#196E4F"/>
<stop offset="1" stop-color="#5BBF9B"/>
</linearGradient>
<clipPath id="clip0_58_147">
<rect width="54" height="54" fill="white"/>
</clipPath>
</defs>
</svg>
