<svg width="32" height="32" viewBox="0 0 32 32" fill="none" xmlns="http://www.w3.org/2000/svg">
<circle cx="16" cy="16" r="16" fill="#00C041"/>
<path fill-rule="evenodd" clip-rule="evenodd" d="M22.5231 9.5155C20.925 7.92069 18.7997 7.04201 16.5356 7.04108C11.87 7.04108 8.07288 10.8259 8.071 15.4777C8.07037 16.9647 8.46009 18.4164 9.20085 19.6959L8 24.0679L12.4872 22.8946C13.7236 23.5669 15.1155 23.9212 16.5321 23.9216H16.5357C21.2007 23.9216 24.9982 20.1365 25 15.4845C25.0009 13.2299 24.1213 11.1102 22.5231 9.5155ZM16.5356 22.4967H16.5326C15.2703 22.4962 14.0322 22.158 12.9519 21.5192L12.6951 21.3672L10.0323 22.0634L10.743 19.4756L10.5757 19.2103C9.87144 18.0938 9.49955 16.8032 9.50018 15.4782C9.50164 11.6117 12.6578 8.46608 16.5384 8.46608C18.4175 8.4667 20.184 9.19708 21.5122 10.5226C22.8405 11.8482 23.5716 13.6101 23.5709 15.4839C23.5693 19.3507 20.4133 22.4967 16.5356 22.4967ZM20.3946 17.2445C20.1831 17.1389 19.1433 16.6291 18.9493 16.5586C18.7556 16.4883 18.6145 16.4532 18.4736 16.6642C18.3326 16.8752 17.9273 17.3501 17.8039 17.4907C17.6804 17.6314 17.5572 17.6491 17.3456 17.5435C17.1341 17.438 16.4527 17.2153 15.6448 16.4971C15.0161 15.9381 14.5916 15.2477 14.4682 15.0368C14.345 14.8256 14.4672 14.7225 14.561 14.6065C14.7899 14.3231 15.0192 14.026 15.0897 13.8854C15.1603 13.7447 15.1249 13.6215 15.072 13.516C15.0192 13.4106 14.5962 12.3729 14.42 11.9506C14.2482 11.5397 14.074 11.5952 13.9441 11.5888C13.8209 11.5826 13.6798 11.5814 13.5387 11.5814C13.3978 11.5814 13.1686 11.6341 12.9747 11.8453C12.7809 12.0563 12.2346 12.5663 12.2346 13.604C12.2346 14.6416 12.9924 15.6441 13.0981 15.7848C13.2039 15.9255 14.5896 18.0549 16.7111 18.968C17.2157 19.1854 17.6096 19.315 17.9169 19.4121C18.4236 19.5726 18.8845 19.55 19.249 19.4957C19.6554 19.4351 20.5002 18.9856 20.6766 18.4933C20.8528 18.0008 20.8528 17.5787 20.7998 17.4907C20.7471 17.4028 20.606 17.3501 20.3946 17.2445Z" fill="white"/>
</svg>
