<svg width="210" height="90" viewBox="0 0 210 90" fill="none" xmlns="http://www.w3.org/2000/svg">
<mask id="mask0_206_3" style="mask-type:luminance" maskUnits="userSpaceOnUse" x="123" y="8" width="49" height="50">
<path d="M123.505 8.96942H171.557V57.0214H123.505V8.96942Z" fill="white"/>
</mask>
<g mask="url(#mask0_206_3)">
<path d="M164.659 46.8915C156.092 55.4587 142.205 55.4587 133.638 46.8915C125.07 38.3274 125.07 24.4374 133.638 15.8702C139.882 9.62866 148.95 7.9378 156.727 10.7946C148.019 7.19309 137.621 8.92973 130.543 16.0075C121.158 25.3896 121.158 40.6043 130.543 49.9894C139.925 59.3715 155.14 59.3715 164.522 49.9894C171.602 42.9086 173.339 32.5101 169.735 23.8025C172.594 31.5792 170.9 40.65 164.659 46.8915Z" fill="#196E4F"/>
</g>
<path d="M160.658 45.6646C167.781 38.5411 167.781 26.995 160.658 19.8715C153.537 12.751 141.988 12.751 134.865 19.8715C129.676 25.0631 128.269 32.6048 130.644 39.0691C127.65 31.8295 129.093 23.183 134.981 17.2986C142.782 9.49744 155.43 9.49744 163.231 17.2986C171.035 25.0997 171.035 37.7475 163.231 45.5517C157.346 51.4361 148.7 52.8798 141.46 49.8857C147.925 52.2602 155.466 50.8532 160.658 45.6646Z" fill="#211D1D"/>
<path d="M75.6094 11.2034C75.7894 14.4508 75.7894 36.2793 75.7894 43.7966C67.3718 33.2119 58.5909 22.3282 51.0126 11.9237C50.4724 11.2614 49.9322 11.2034 49.2088 11.2034H46.0225C46.2025 14.4508 46.2025 49.269 46.0225 53.2977H50.7135C50.5914 49.8092 50.5914 28.5209 50.6525 20.5244C60.3337 32.7908 67.912 42.2339 75.4903 52.4553C76.1496 53.2367 76.1496 53.2977 77.172 53.2977H80.3004C80.1783 49.449 80.2394 15.1711 80.3615 11.2034H75.6094Z" fill="#196E4F"/>
<path d="M102.184 49.1469C99.7213 49.1469 98.2166 49.0278 97.1941 48.7287C97.1331 44.938 97.1331 39.4077 97.1331 33.6942C102.728 33.6942 108.319 33.6942 113.852 33.8742V29.3022C108.258 29.4823 102.728 29.6044 97.1331 29.5433C97.1331 24.4921 97.1331 19.56 97.1941 16.1325C97.3132 15.5312 97.9144 15.3512 98.8179 15.3512C105.493 15.3512 114.936 15.4732 118 15.5923V11.2034H90.9404C91.1205 13.9075 91.1205 50.6515 90.9404 53.2977H118.965V48.8478C116.376 49.0278 107.538 49.1469 102.184 49.1469Z" fill="#196E4F"/>
<path d="M20.3565 66.3494C23.0728 66.3219 27.2023 66.3219 28.5086 66.4532V64.57H16.8008C16.8801 65.7207 16.8801 81.7105 16.8008 82.8612H19.5446C19.5202 82.3393 19.4927 78.8629 19.4927 75.0478C21.8184 75.0478 24.3516 75.0753 26.7567 75.1547V73.2471C24.3516 73.3234 21.8184 73.3234 19.4927 73.3234C19.4927 70.8695 19.4927 68.437 19.5202 66.7401C19.5965 66.4257 19.9627 66.3494 20.3565 66.3494Z" fill="black"/>
<path d="M50.3995 82.8612V80.9811C49.6152 81.0574 46.2975 81.0849 43.5293 81.0849C42.7449 81.0849 42.0643 80.9811 41.6218 80.8743C41.5699 76.9829 41.5699 65.4857 41.6462 64.57H38.9023C38.9817 65.7207 38.9817 81.7105 38.9023 82.8612H50.3995Z" fill="black"/>
<path d="M68.4239 83.1237C73.7558 83.1237 77.6472 79.0735 77.6472 73.7415C77.6472 68.1776 73.4689 64.2831 68.3475 64.2831C63.0949 64.2831 59.0723 68.1257 59.0723 73.6897C59.0723 79.1498 63.2262 83.1237 68.4239 83.1237ZM68.5551 81.3992C64.6881 81.3992 61.9717 77.7154 61.9717 72.594C61.9717 68.7789 64.5324 66.035 68.1644 66.035C72.0039 66.035 74.7203 69.5877 74.7203 74.6297C74.7203 78.6279 72.1871 81.3992 68.5551 81.3992Z" fill="black"/>
<path d="M96.586 83.1237C101.918 83.1237 105.809 79.0735 105.809 73.7415C105.809 68.1776 101.631 64.2831 96.5097 64.2831C91.257 64.2831 87.2344 68.1257 87.2344 73.6897C87.2344 79.1498 91.3883 83.1237 96.586 83.1237ZM96.7172 81.3992C92.8502 81.3992 90.1339 77.7154 90.1339 72.594C90.1339 68.7789 92.6946 66.035 96.3265 66.035C100.166 66.035 102.882 69.5877 102.882 74.6297C102.882 78.6279 100.349 81.3992 96.7172 81.3992Z" fill="black"/>
<path d="M130.94 82.8612C130.391 82.1561 127.204 77.0347 126.368 75.6247C128.849 74.7884 130.208 72.9327 130.208 70.4758C130.208 67.0025 127.543 64.57 122.553 64.57H116.595C116.647 65.5894 116.675 81.3199 116.595 82.8612H119.339C119.315 82.2599 119.287 79.4123 119.287 76.1466H122.919C123.233 76.1466 123.52 76.1466 123.835 76.1191C124.644 77.3216 127.595 82.2355 127.885 82.8612H130.94ZM121.35 74.4222C120.386 74.4222 119.785 74.3184 119.287 74.1872V66.9507C119.367 66.5051 119.705 66.4257 120.49 66.4257H122.422C125.635 66.4257 127.412 67.8907 127.412 70.6345C127.412 73.1952 125.663 74.4222 122.684 74.4222H121.35Z" fill="black"/>
<path d="M143.687 82.8612C143.61 81.7105 143.61 65.7481 143.687 64.57H140.943C141.022 65.7207 141.022 81.7105 140.943 82.8612H143.687Z" fill="black"/>
<path d="M168.533 64.57C168.612 65.9832 168.612 75.466 168.612 78.7317C164.953 74.1353 161.141 69.4045 157.848 64.8844C157.613 64.5975 157.378 64.57 157.063 64.57H155.678C155.757 65.9832 155.757 81.1093 155.678 82.8612H157.717C157.665 81.3443 157.665 72.0965 157.692 68.6202C161.898 73.9521 165.188 78.0541 168.481 82.4949C168.768 82.8337 168.768 82.8612 169.214 82.8612H170.572C170.52 81.1886 170.544 66.2975 170.599 64.57H168.533Z" fill="black"/>
<path d="M191.967 73.8484C191.967 74.3428 191.992 74.6053 192.15 75.0234C193.246 75.1791 194.919 75.2584 195.99 75.3103C195.99 76.6166 195.938 78.9667 195.782 80.0136L195.859 79.9861C194.711 80.798 193.115 81.2924 191.47 81.2924C187.288 81.2924 184.233 77.7917 184.233 73.0121C184.233 68.7514 186.635 66.0076 189.877 66.0076C192.41 66.0076 194.971 67.7595 195.676 70.1096C196.042 70.1615 196.616 70.1615 197.034 70.0577C197.766 69.9539 198.16 69.1451 198.081 68.492C197.376 66.0869 194.082 64.2587 190.371 64.2587C185.277 64.2587 181.386 68.3088 181.386 73.6134C181.386 79.0217 185.277 83.1481 190.554 83.1481C194.656 83.1481 197.687 81.4511 198.288 78.7866V78.6554C198.288 77.6879 198.34 76.2778 198.34 75.3378C199.1 75.3378 199.387 74.9715 199.387 73.8484C197.949 73.8209 194.031 73.8209 191.967 73.8484Z" fill="black"/>
</svg>
