<svg width="113" height="100" viewBox="0 0 113 100" fill="none" xmlns="http://www.w3.org/2000/svg">
<circle cx="50" cy="50" r="50" fill="url(#paint0_linear_100_99)"/>
<g clip-path="url(#clip0_100_99)">
<path d="M34.373 8.33222C33.5187 8.71191 33.0599 9.12324 32.4904 9.97754L32.0791 10.6104L32.0316 48.1678C32.0158 74.7775 32.0474 85.8992 32.174 86.358C32.3955 87.1965 33.7876 88.5887 34.6261 88.826C35.0533 88.9525 43.5962 89 63.1818 89H91.1046L91.9431 88.5887C92.9556 88.0824 93.7783 87.0383 94.0156 85.915C94.1421 85.3771 94.1738 82.7668 94.1421 77.9732C94.0947 70.9965 94.0788 70.8066 93.7624 70.4902C93.5884 70.3162 93.1771 70.1264 92.8607 70.0631C92.3703 69.984 92.2279 70.0473 91.8007 70.4586L91.3261 70.9332V78.0049C91.3261 85.4404 91.2945 85.7885 90.6142 86.0574C90.4718 86.1049 78.0212 86.1523 62.9445 86.1523H35.5279L35.1957 85.7885L34.8476 85.4246V48.4842V11.5279L35.2115 11.1957L35.5753 10.8477H62.9603C78.0212 10.8477 90.4718 10.8951 90.6142 10.9426C91.3261 11.2273 91.3261 11.1482 91.3261 24.9277V37.932L91.8007 38.4066C92.2279 38.818 92.3703 38.8812 92.8607 38.8021C93.1771 38.7389 93.5884 38.549 93.7624 38.375C94.0947 38.0586 94.0947 37.9637 94.0947 24.4848C94.0947 11.3855 94.0788 10.9109 93.7941 10.3098C93.3828 9.48711 92.5443 8.66445 91.7374 8.30058C91.1205 8.01582 90.0605 8 63.0869 8C35.2431 8 35.0849 8.01582 34.373 8.33222Z" fill="white"/>
<path d="M44.5453 16.448L44.1023 16.8277L44.0549 19.8335C43.9916 23.1716 44.134 23.8519 44.8934 24.1367C45.5262 24.374 80.8055 24.3581 81.2484 24.105C81.7705 23.8361 81.9762 23.488 81.9762 22.871C81.9762 22.254 81.7705 21.906 81.2484 21.637C80.9953 21.4947 76.5182 21.4472 63.8935 21.4472H46.8709V20.1816V18.916L64.0518 18.8843L81.2326 18.8368L81.6123 18.3939C82.1344 17.7927 82.1185 17.0333 81.5807 16.4796L81.1535 16.0683H63.0709H44.9883L44.5453 16.448Z" fill="white"/>
<path d="M107.574 24.3582C106.672 24.6904 105.897 25.3549 105.264 26.3674C104.758 27.1742 104.647 27.2691 104.283 27.19C103.84 27.1109 103.239 27.3482 102.922 27.7596C102.812 27.902 101.989 29.2625 101.103 30.7971L99.4736 33.5973L98.7617 33.2176C98.3662 33.0119 97.8125 32.8379 97.5435 32.8379C96.6734 32.8379 96.0564 33.7396 96.2937 34.6572C96.3886 35.0053 97.3695 35.8754 97.8441 36.0336C97.939 36.0652 95.4552 40.5424 92.307 45.9687L86.6117 55.8564L85.1879 59.6533C84.3968 61.7416 83.3527 64.2254 82.8465 65.1904C81.9763 66.8199 81.9289 66.9939 81.9131 68.0381C81.9131 68.8449 81.9922 69.3195 82.2295 69.7783L82.5617 70.4111L81.217 72.0723C80.4892 72.9898 79.8406 73.7967 79.7773 73.86C79.714 73.9232 79.4767 73.4803 79.2394 72.8633C78.4959 70.9807 77.7365 70.332 76.2652 70.332C75.316 70.332 74.6199 70.6801 74.0662 71.4236C73.8763 71.6926 73.6707 71.8666 73.6074 71.835C73.5441 71.7875 73.4492 70.9965 73.3859 70.0631C73.117 66.108 72.8638 65.4119 71.4875 64.7791C70.6965 64.4152 70.1427 64.3994 69.3675 64.7316C68.1177 65.2379 68.0545 65.3961 66.1086 71.2654C64.8271 75.1256 64.3209 76.8658 64.3841 77.1822C64.574 78.0998 65.9029 78.5744 66.6306 77.9574C66.8679 77.7676 67.4533 76.2172 68.6082 72.7842C70.4591 67.2471 70.2693 67.3894 70.6015 71.2338C70.7756 73.3221 70.9179 73.86 71.44 74.4137C72.674 75.7426 74.8097 75.5686 75.8381 74.0498C76.0437 73.7492 76.2494 73.4961 76.2968 73.4961C76.3443 73.4961 76.55 73.9391 76.7556 74.4769C77.4359 76.2963 78.2427 76.9766 79.6982 76.9766C80.948 76.9766 81.391 76.6127 83.7324 73.6385L84.9189 72.1197H85.9472C87.8773 72.1197 88.7474 71.4869 90.3295 68.9398C90.8357 68.1488 92.3386 66.1713 93.6517 64.5734L96.0722 61.6625L101.799 51.7115C104.932 46.2535 107.542 41.7447 107.574 41.6973C107.684 41.5707 108.76 42.2352 109.077 42.6307C109.282 42.8996 109.361 43.1844 109.298 43.4533C109.251 43.6906 107.937 46.0953 106.371 48.8164C103.903 53.0879 103.539 53.8314 103.619 54.2586C103.793 55.2869 105.09 55.8248 105.849 55.192C106.134 54.9389 110.738 47.1236 111.734 45.1777C112.019 44.6557 112.114 44.1969 112.114 43.4375C112.114 41.7447 111.418 40.6057 109.82 39.609L109.045 39.1344L109.551 38.2484C109.836 37.7422 110.611 36.3816 111.291 35.2109C111.987 34.0086 112.525 32.9012 112.525 32.6639C112.525 32.4266 112.399 32.0785 112.225 31.8728C111.94 31.509 111.94 31.4932 112.462 30.4016C113.174 28.9461 113.206 27.6172 112.589 26.3832C111.703 24.5955 109.456 23.6937 107.574 24.3582ZM109.883 27.4748C110.026 27.6646 110.152 27.9811 110.152 28.2025C110.152 28.6771 109.583 29.832 109.345 29.832C109.187 29.832 107.558 28.9777 107.305 28.7721C107.178 28.6613 107.843 27.5855 108.238 27.2691C108.728 26.8895 109.472 26.9844 109.883 27.4748ZM106.957 31.8887C108.096 32.5373 109.029 33.1543 108.997 33.2492C108.903 33.6922 106.577 37.5682 106.419 37.5365C105.976 37.4416 102.084 35.116 102.131 34.9578C102.226 34.5148 104.552 30.6389 104.71 30.6705C104.789 30.6863 105.802 31.24 106.957 31.8887ZM102.922 38.9129L105.09 40.1627L104.789 40.6531C104.631 40.9221 102.226 45.0512 99.4736 49.8447C96.7209 54.6225 94.4269 58.5775 94.3953 58.6092C94.2687 58.7516 89.9814 56.1254 90.0289 55.9355C90.108 55.5717 100.549 37.5682 100.66 37.6156C100.708 37.6473 101.736 38.2326 102.922 38.9129ZM90.4718 59.7799C91.4211 60.3336 92.307 60.8557 92.4494 60.9348C92.6709 61.0613 92.4652 61.3936 91.073 63.0547C90.1554 64.1463 89.3644 65.0322 89.3011 65.0322C89.0322 65.0322 86.8965 63.7508 86.8965 63.5926C86.8965 63.4818 87.2603 62.4535 87.6875 61.2986C88.1304 60.1279 88.5101 59.0838 88.5576 58.973C88.5892 58.8781 88.6525 58.7832 88.6841 58.7832C88.7316 58.7832 89.5226 59.2262 90.4718 59.7799ZM87.5293 67.4844C87.7349 67.6109 87.7349 67.69 87.466 68.1805C87.0388 68.9715 86.6591 69.2721 86.0738 69.2721C85.5201 69.2721 84.8398 68.6393 84.8398 68.1014C84.8398 67.785 85.2037 66.9623 85.5043 66.5826C85.6466 66.3928 85.9472 66.5193 87.5293 67.4844Z" fill="white"/>
<path d="M48.5955 27.285C47.8995 27.9811 48.0418 29.1202 48.8803 29.4999C49.4024 29.7372 76.819 29.753 77.2778 29.4999C77.7682 29.2309 78.0688 28.3766 77.8631 27.7913C77.5151 26.7788 78.1637 26.8262 62.9288 26.8262H49.0543L48.5955 27.285Z" fill="white"/>
<path d="M54.1325 36.5241C53.4364 37.062 53.3731 38.201 54.006 38.7864C54.3224 39.0711 54.8919 39.087 69.5573 39.1344C81.0271 39.1661 84.8714 39.1186 85.2194 38.9762C85.7415 38.7706 86.1687 37.9004 86.0105 37.3784C85.963 37.1885 85.7573 36.8721 85.5833 36.6665L85.2669 36.3184H69.8263C57.9294 36.3342 54.3224 36.3659 54.1325 36.5241Z" fill="white"/>
<path d="M41.8558 44.7664C41.2388 45.3043 41.2388 46.3168 41.8558 46.8547L42.2988 47.2344H56.2839H70.2691L70.7121 46.8547C71.3291 46.3168 71.3291 45.3043 70.7121 44.7664L70.2691 44.3867H56.2839H42.2988L41.8558 44.7664Z" fill="white"/>
<path d="M74.2244 44.8455C73.908 45.1619 73.7656 45.4625 73.7656 45.8105C73.7656 46.1586 73.908 46.4592 74.2244 46.7756L74.6832 47.2344H79.9197H85.1404L85.5834 46.8547C85.9314 46.5541 86.0264 46.3484 86.0264 45.8105C86.0264 45.2727 85.9314 45.067 85.5834 44.7664L85.1404 44.3867H79.9197H74.6832L74.2244 44.8455Z" fill="white"/>
<path d="M41.8561 51.5375C41.3815 52.0596 41.2866 52.5184 41.5555 53.1512C41.9194 54.0371 42.1567 54.0529 49.9087 54.0055L56.8379 53.958L57.2493 53.5467C57.7872 52.993 57.8188 52.1229 57.2967 51.5692L56.9487 51.1895H49.5606H42.1725L41.8561 51.5375Z" fill="white"/>
<path d="M60.7136 51.585C60.1599 52.1229 60.1757 53.0562 60.7294 53.5783L61.1408 53.958H66.4089H71.6771L72.0884 53.5783C72.6738 53.0246 72.6738 51.9805 72.0884 51.5217C71.6771 51.2053 71.4872 51.1895 66.3773 51.1895H61.0933L60.7136 51.585Z" fill="white"/>
<path d="M47.2033 60.7132C41.5713 61.5043 37.3789 66.3611 37.3789 72.0564C37.3789 74.0972 37.7111 75.5052 38.5496 77.2138C39.7836 79.6818 41.3182 81.2164 43.7861 82.4503C45.4947 83.2888 46.9027 83.621 48.9436 83.621C54.8287 83.6369 59.5748 79.3812 60.3184 73.4486C60.4607 72.3253 60.4449 71.9773 60.2551 71.5343C59.8754 70.6009 58.6256 70.4427 57.9137 71.2179C57.7555 71.4078 57.5973 72.0406 57.5023 72.8791C57.1068 76.0748 55.3666 78.5902 52.6455 79.8875C51.0951 80.631 50.0984 80.8367 48.3898 80.7259C46.5863 80.631 45.115 80.1089 43.7229 79.049C41.6187 77.4828 40.4164 75.2205 40.274 72.6101C40.1158 70.0314 40.9385 67.864 42.742 66.0763C45.7004 63.1179 49.9244 62.6433 53.5789 64.8582C54.7496 65.5543 55.2875 65.5859 55.9045 64.9689C56.917 63.9564 56.3158 62.9755 53.9902 61.8048C52.0443 60.8398 49.3707 60.3968 47.2033 60.7132Z" fill="white"/>
<path d="M51.0636 70.6483L48.5324 73.1796L46.9345 71.5817C45.4791 70.1263 45.2734 69.9839 44.7513 69.9839C43.6597 69.9839 43.0111 70.9964 43.4699 71.9772C43.8179 72.705 46.6972 75.4894 47.3933 75.7899C48.1211 76.0905 48.9437 76.0905 49.6556 75.7899C50.2884 75.521 54.9871 70.9964 55.3509 70.3003C55.8888 69.2562 55.2877 68.1171 54.1802 68.1171C53.6582 68.1171 53.405 68.3386 51.0636 70.6483Z" fill="white"/>
</g>
<defs>
<linearGradient id="paint0_linear_100_99" x1="50" y1="0" x2="50" y2="100" gradientUnits="userSpaceOnUse">
<stop stop-color="#196E4F"/>
<stop offset="1" stop-color="#3EA07D"/>
</linearGradient>
<clipPath id="clip0_100_99">
<rect width="81" height="81" fill="white" transform="translate(32 8)"/>
</clipPath>
</defs>
</svg>
