<svg width="119" height="100" viewBox="0 0 119 100" fill="none" xmlns="http://www.w3.org/2000/svg">
<circle cx="50" cy="50" r="50" fill="url(#paint0_linear_100_97)"/>
<path d="M45.4268 23.5457C32.549 29.9846 21.9143 35.3986 21.7982 35.5727C21.5082 35.94 21.4695 37.0422 21.7209 37.5063C21.8176 37.6803 23.7318 38.7438 25.9748 39.8652C28.2178 40.9674 30.0547 41.9342 30.0547 41.9922C30.0547 42.0502 28.2178 43.017 25.9748 44.1191C23.7318 45.2406 21.8176 46.3041 21.7209 46.4781C21.4889 46.9035 21.4889 54.0965 21.7209 54.5219C21.8176 54.6959 23.7318 55.7594 25.9748 56.8809C28.2178 57.983 30.0547 58.9498 30.0547 59.0078C30.0547 59.0658 28.2178 60.0326 25.9748 61.1348C23.7318 62.2563 21.8176 63.3197 21.7209 63.4938C21.5275 63.8611 21.4889 64.8279 21.6629 65.292C21.8369 65.7561 68.7652 89.1719 69.5 89.1719C70.2348 89.1719 117.163 65.7561 117.337 65.292C117.511 64.8279 117.472 63.8611 117.279 63.4938C117.182 63.3197 115.268 62.2563 113.025 61.1348C110.782 60.0326 108.945 59.0658 108.945 59.0078C108.945 58.9498 110.782 57.983 113.025 56.8809C115.268 55.7594 117.182 54.6959 117.279 54.5219C117.511 54.0965 117.511 46.9035 117.279 46.4781C117.182 46.3041 115.268 45.2406 113.025 44.1191C110.782 43.017 108.945 42.0502 108.945 41.9922C108.945 41.9342 110.782 40.9674 113.025 39.8652C115.268 38.7438 117.182 37.6803 117.279 37.5063C117.472 37.1389 117.511 36.1721 117.337 35.708C117.144 35.2053 70.2348 11.8281 69.4613 11.8475C69.0166 11.8475 61.4562 15.5406 45.4268 23.5457ZM90.8662 25.8854C102.506 31.7248 112.039 36.5201 112.039 36.5781C112.039 36.6361 102.468 41.4701 90.7695 47.3096L69.5 57.9443L48.2305 47.3096C36.5322 41.4701 26.9609 36.6361 26.9609 36.5781C26.9609 36.4428 69.152 15.3279 69.442 15.3279C69.5773 15.3086 79.226 20.0652 90.8662 25.8854ZM51.8076 52.7623L69.5 61.6182L87.2891 52.7236L105.078 43.8291L108.559 45.5693C110.473 46.5168 112.039 47.3482 112.039 47.4062C112.039 47.4643 102.468 52.2982 90.7695 58.1377L69.5 68.7725L48.2305 58.1377C36.5322 52.2982 26.9609 47.4643 26.9609 47.4062C26.9609 47.2709 33.5738 43.9451 33.8639 43.9451C33.9992 43.9258 42.0816 47.909 51.8076 52.7623ZM46.3936 60.8834L67.9531 71.6729V72.8717C67.9531 73.5484 67.9145 74.0898 67.8564 74.0898C67.7984 74.0898 58.0531 69.2365 46.2002 63.3197L24.6406 52.5303V51.3314C24.6406 50.6547 24.6793 50.1133 24.7373 50.1133C24.7953 50.1133 34.5406 54.9666 46.3936 60.8834ZM114.359 51.3314V52.5303L92.7998 63.3197C80.9469 69.2365 71.2016 74.0898 71.1436 74.0898C71.0855 74.0898 71.0469 73.5484 71.0469 72.8717V71.6729L92.5678 60.9027C104.382 54.9859 114.127 50.1326 114.224 50.1326C114.301 50.1133 114.359 50.6547 114.359 51.3314ZM51.8076 69.7779L69.5 78.6338L87.2891 69.7393L105.078 60.8447L108.559 62.585C110.473 63.5324 112.039 64.3639 112.039 64.4219C112.039 64.4799 102.468 69.3139 90.7695 75.1533L69.5 85.7881L48.2305 75.1533C36.5322 69.3139 26.9609 64.4799 26.9609 64.4219C26.9609 64.2865 33.5738 60.9607 33.8639 60.9607C33.9992 60.9414 42.0816 64.9246 51.8076 69.7779Z" fill="white"/>
<defs>
<linearGradient id="paint0_linear_100_97" x1="50" y1="0" x2="50" y2="100" gradientUnits="userSpaceOnUse">
<stop stop-color="#196E4F"/>
<stop offset="1" stop-color="#3EA07D"/>
</linearGradient>
</defs>
</svg>
