<svg width="19" height="18" viewBox="0 0 19 18" fill="none" xmlns="http://www.w3.org/2000/svg">
<g clip-path="url(#clip0_80_165)">
<path d="M9.02202 0.0199089C7.33468 0.192175 5.82251 0.775768 4.46406 1.77421C4.0029 2.11171 3.14135 2.96249 2.79816 3.41249C2.05816 4.38632 1.55768 5.40936 1.26454 6.54139C1.05362 7.36757 1 7.79296 1 8.68593C1 9.46991 1.0286 9.79335 1.16087 10.4437C1.61845 12.6937 2.97333 14.6695 4.94666 15.9633C6.05488 16.691 7.23816 17.134 8.62879 17.3414C9.13642 17.4152 10.452 17.4258 10.9346 17.359C12.9723 17.0707 14.6167 16.2902 16.0431 14.9262C17.8198 13.2316 18.7922 10.8375 18.6992 8.40468C18.6063 6.09842 17.6732 4.03475 16.0002 2.43866C14.6596 1.16249 12.9687 0.346863 11.0955 0.0726433C10.645 0.00584793 9.44743 -0.0222778 9.02202 0.0199089ZM13.1725 5.12108C13.4727 5.30741 13.6801 5.4621 13.7301 5.53592C13.8195 5.666 13.8374 5.85233 13.7695 5.97186C13.748 6.01405 12.8042 7.43436 11.6782 9.12538C10.3626 11.0976 9.56898 12.2543 9.46531 12.3492C9.27941 12.5215 9.05062 12.6058 8.77536 12.6058C8.39642 12.6058 8.30705 12.539 7.07729 11.3578C6.45884 10.7672 5.9369 10.2363 5.91188 10.1801C5.88686 10.1203 5.87613 10.0113 5.88686 9.92694C5.90473 9.80038 5.95478 9.73358 6.31227 9.38202C6.53391 9.16053 6.75913 8.95663 6.81275 8.9285C6.94144 8.86171 7.19884 8.86522 7.30608 8.93553C7.35613 8.96718 7.67072 9.26249 8.01033 9.59296L8.62521 10.1906L9.37594 9.06913C9.78705 8.45389 10.5735 7.27616 11.1241 6.4535C11.8069 5.43046 12.1608 4.93475 12.243 4.8785C12.4539 4.73436 12.6183 4.77655 13.1725 5.12108Z" fill="url(#paint0_linear_80_165)"/>
<path d="M12.1606 5.13637C12.0998 5.15395 12.0105 5.2102 11.9568 5.26294C11.9068 5.31919 11.0953 6.51098 10.1587 7.91723C9.21848 9.327 8.43916 10.4766 8.42844 10.4766C8.41414 10.4766 8.10312 10.1918 7.73848 9.84731C6.84476 8.99653 6.84834 8.99653 6.16911 9.64341C5.66863 10.1145 5.61143 10.2305 5.7437 10.4836C5.83307 10.6594 7.91365 12.6633 8.1067 12.7653C8.49636 12.9657 8.93964 12.9129 9.24708 12.6247C9.36863 12.5122 10.0479 11.5243 11.4814 9.37622C12.6146 7.67817 13.5548 6.2438 13.5727 6.18755C13.612 6.05044 13.5548 5.84653 13.4476 5.75161C13.2938 5.61801 12.4859 5.13989 12.3751 5.12231C12.3179 5.11528 12.2178 5.1188 12.1606 5.13637Z" fill="#ECECEC"/>
</g>
<defs>
<linearGradient id="paint0_linear_80_165" x1="9.85266" y1="17.4034" x2="9.85266" y2="-3.05176e-05" gradientUnits="userSpaceOnUse">
<stop stop-color="#3EA07D"/>
<stop offset="0.973958" stop-color="#196E4F"/>
</linearGradient>
<clipPath id="clip0_80_165">
<rect width="18.3034" height="18" fill="white" transform="translate(0.48877)"/>
</clipPath>
</defs>
</svg>
