<svg width="66" height="66" viewBox="0 0 66 66" fill="none" xmlns="http://www.w3.org/2000/svg">
<g clip-path="url(#clip0_1551_63)">
<g clip-path="url(#clip1_1551_63)">
<path fill-rule="evenodd" clip-rule="evenodd" d="M56.3839 9.63755C50.1796 3.42596 41.9284 0.00364292 33.138 0C15.0246 0 0.282934 14.7413 0.275648 32.8595C0.273219 38.6514 1.78625 44.3052 4.66213 49.2887L0 66.3173L17.4208 61.7475C22.221 64.366 27.6251 65.7458 33.1247 65.7474H33.1384C51.2498 65.7474 65.9931 51.0049 66 32.8859C66.0036 24.1048 62.5886 15.8487 56.3839 9.63755ZM33.138 60.1976H33.1267C28.2258 60.1956 23.4191 58.8785 19.2249 56.3904L18.228 55.7982L7.89016 58.5102L10.6495 48.431L9.99982 47.3976C7.2656 43.0488 5.82179 38.0224 5.82422 32.8616C5.82989 17.8021 18.0831 5.55019 33.149 5.55019C40.4445 5.55262 47.3025 8.39734 52.4593 13.5602C57.616 18.723 60.4543 25.5854 60.4518 32.8838C60.4454 47.9445 48.193 60.1976 33.138 60.1976ZM48.1201 39.741C47.2993 39.3298 43.2621 37.344 42.5092 37.0695C41.7572 36.7955 41.2091 36.6591 40.6623 37.4808C40.1146 38.3025 38.5413 40.1523 38.062 40.6999C37.5828 41.248 37.1044 41.3168 36.2831 40.9055C35.4618 40.4947 32.8162 39.6273 29.6797 36.8299C27.2389 34.6527 25.5911 31.9638 25.1119 31.1421C24.6334 30.3196 25.1078 29.9181 25.4721 29.4664C26.361 28.3626 27.2511 27.2053 27.5247 26.6577C27.7987 26.1096 27.6615 25.63 27.4559 25.2191C27.2511 24.8083 25.6089 20.7667 24.9249 19.1221C24.2578 17.5216 23.5814 17.7378 23.0771 17.7127C22.5987 17.6888 22.051 17.684 21.5033 17.684C20.9561 17.684 20.0664 17.8892 19.3135 18.7117C18.5611 19.5337 16.4401 21.5199 16.4401 25.5616C16.4401 29.6032 19.3824 33.5076 19.7928 34.0556C20.2032 34.6037 25.583 42.8974 33.8197 46.4537C35.7787 47.3005 37.308 47.8052 38.5008 48.1837C40.468 48.8087 42.2575 48.7204 43.6725 48.5091C45.2503 48.2731 48.5302 46.5225 49.215 44.6047C49.8991 42.6865 49.8991 41.0428 49.6935 40.6999C49.4887 40.3575 48.941 40.1523 48.1201 39.741Z" fill="#00C041"/>
</g>
</g>
<defs>
<clipPath id="clip0_1551_63">
<rect width="66" height="66" fill="white"/>
</clipPath>
<clipPath id="clip1_1551_63">
<rect width="66" height="66" fill="white"/>
</clipPath>
</defs>
</svg>
