<svg width="42" height="54" viewBox="0 0 42 54" fill="none" xmlns="http://www.w3.org/2000/svg">
<path d="M18.0995 0.147655C14.8827 0.674999 12.2354 1.70859 9.66197 3.42773C5.27447 6.35976 2.22642 10.916 1.10846 16.1895C0.770956 17.7504 0.644393 20.8934 0.844784 22.5387C1.42486 27.232 3.89283 32.9484 7.97447 39.034C9.82018 41.7762 12.7311 45.5309 15.0725 48.1992C16.3909 49.6863 19.1436 52.6395 19.8713 53.3461C20.4936 53.9367 20.5991 54 21.021 54C21.4639 54 21.4956 53.9789 22.8667 52.5867C27.9924 47.3449 32.844 41.1961 35.8921 36.0809C38.803 31.1977 40.5221 26.8418 41.1022 22.8867C41.3553 21.0938 41.2604 17.9191 40.8913 16.1895C39.1932 8.16328 33.0971 2.06719 25.0604 0.358593C23.953 0.116016 23.4889 0.0738258 21.369 0.0527344C19.7026 0.0210915 18.6796 0.0527344 18.0995 0.147655ZM23.3202 11.3379C24.3643 11.6016 26.0202 12.4453 26.8534 13.152C30.9878 16.6324 31.3253 22.7496 27.6022 26.6625C24.8811 29.5207 20.3038 30.2695 16.8022 28.4238C14.387 27.1477 12.6573 24.9434 12.035 22.3594C11.7503 21.1359 11.7503 19.3641 12.035 18.1406C12.4885 16.2633 13.6698 14.3754 15.178 13.1203C15.9796 12.4559 17.6671 11.591 18.6796 11.3273C20.0612 10.9688 21.9069 10.9688 23.3202 11.3379Z" fill="url(#paint0_linear_58_156)"/>
<defs>
<linearGradient id="paint0_linear_58_156" x1="20.9965" y1="54" x2="20.9965" y2="0.0408669" gradientUnits="userSpaceOnUse">
<stop offset="0.21875" stop-color="#196E4F"/>
<stop offset="1" stop-color="#5BBF9B"/>
</linearGradient>
</defs>
</svg>
