<svg width="26" height="26" viewBox="0 0 26 26" fill="none" xmlns="http://www.w3.org/2000/svg">
<g clip-path="url(#clip0_90_108)">
<path d="M1.43711 0.0710983C0.914062 0.238676 0.401172 0.69063 0.1625 1.2086L0.0253906 1.49805L0.0304687 2.76758C0.0304687 4.07266 0.0914062 4.78868 0.309766 6.06836C1.45742 12.8934 5.48945 18.8449 11.4512 22.5215C12.3195 23.0547 14.102 23.9535 15.0312 24.3191C17.8598 25.4363 21.0031 26.0457 23.6641 25.9898C24.4918 25.9746 24.507 25.9746 24.8371 25.8121C25.2434 25.609 25.6445 25.2027 25.8375 24.7965L25.9746 24.502V21.5313V18.5606L25.8375 18.266C25.5836 17.7227 25.0199 17.2453 24.4766 17.1184C24.3496 17.0879 23.8012 17.0422 23.2578 17.0117C21.8461 16.9356 20.7594 16.7527 19.6066 16.3922C18.977 16.1992 18.5098 16.1586 18.0781 16.2703C17.6566 16.377 17.616 16.4074 15.8031 17.7836L14.2848 18.9313L13.7059 18.6012C10.923 17.0066 9.03398 15.1328 7.45977 12.3957L7.06367 11.7203L8.21641 10.1918C8.85117 9.35391 9.41992 8.59727 9.48594 8.51094C9.65859 8.27735 9.80078 7.75938 9.80078 7.36836C9.80078 7.12461 9.75 6.84532 9.62305 6.41875C9.22695 5.08321 9.05937 4.05743 8.98828 2.58985C8.94766 1.64532 8.91211 1.45743 8.69375 1.03594C8.54141 0.736332 8.14023 0.370707 7.76953 0.187895L7.43945 0.0253944L4.54492 0.0152378C2.24961 0.00508308 1.60469 0.0203171 1.43711 0.0710983Z" fill="#196E4F"/>
</g>
<defs>
<clipPath id="clip0_90_108">
<rect width="26" height="26" fill="white"/>
</clipPath>
</defs>
</svg>
