<svg width="115" height="100" viewBox="0 0 115 100" fill="none" xmlns="http://www.w3.org/2000/svg">
<circle cx="50" cy="50" r="50" fill="url(#paint0_linear_100_103)"/>
<g clip-path="url(#clip0_100_103)">
<path d="M66.5578 7.28558C66.5242 7.45354 66.2723 8.57893 66.0203 9.78831L65.5668 11.9887L64.3742 12.375C63.7191 12.5766 62.5602 13.0469 61.8211 13.4164L60.4438 14.0715L58.3609 12.7278C57.202 11.9719 56.1941 11.3672 56.1102 11.3672C56.0262 11.3672 54.3129 13.0133 52.2973 15.0289L48.6523 18.6907L49.3242 20.2696C49.6938 21.1262 49.9961 21.8989 49.9961 21.966C49.9961 22.0332 49.5594 22.134 49.0387 22.2012C47.6445 22.3356 45.5953 23.0242 44.5539 23.6961C42.5551 24.9727 40.9426 27.1899 40.3547 29.4407C39.9852 30.8684 39.9852 35.7395 40.3379 37.1504C40.7746 38.8469 41.5809 40.241 42.9078 41.5848C43.5797 42.2735 44.1004 42.9453 44.0836 43.0965C44.05 43.2645 43.4621 43.4828 42.2695 43.7852L40.5059 44.2219L37.0961 42.2399L33.6695 40.2578H31.3348H29V54.6864V69.1149L35.8531 71.3992C42.3871 73.5828 42.7566 73.6836 44.05 73.6836H45.4273L45.5281 73.1125L45.6457 72.5246L47.7285 73.7844C49.509 74.8594 49.8281 75.1114 49.8281 75.4641C49.8281 76.9926 51.5582 78.7731 53.3891 79.1426C53.7586 79.2098 53.8762 79.361 54.0273 79.9489C54.5145 81.7629 56.127 83.2578 57.6219 83.2578C57.941 83.2578 58.025 83.3922 58.193 84.0977C58.2938 84.5512 58.5793 85.2399 58.8313 85.5926C59.4863 86.5836 60.8805 87.4571 61.8043 87.4571C62.1066 87.4571 62.2074 87.6082 62.3754 88.2801C62.6105 89.2543 63.2488 90.2789 63.9543 90.7996C65.1301 91.6731 66.8938 91.8914 68.3047 91.3371L69.0605 91.0516L69.9172 91.7739C70.3875 92.1602 71.0426 92.5969 71.3785 92.7481C72.2352 93.1008 74.2508 93.0672 75.1074 92.6809C76.384 92.1098 77.5262 90.5645 77.543 89.4391C77.543 89.0696 77.6438 88.952 78.0133 88.868C79.5586 88.5321 80.3816 88.0114 81.1039 86.9364C81.3559 86.5668 81.6078 85.9285 81.6582 85.5254C81.7758 84.8535 81.8262 84.7864 82.3805 84.6856C84.1441 84.3496 85.6055 82.8715 85.891 81.1414C85.9582 80.7047 86.059 80.5703 86.3445 80.5703C86.9828 80.5703 88.3602 79.7977 88.9984 79.0922C89.6031 78.4203 90.1406 77.0934 90.1406 76.2535C90.1406 75.9176 91.4676 75.1953 102.57 69.6524L115 63.4375V53.1914V42.9453H113.471H111.926L109.642 44.1379C107.425 45.2969 107.341 45.3137 106.77 45.1121C106.45 44.9946 104.788 44.5578 103.074 44.1211C100.958 43.6004 99.95 43.2645 99.9164 43.0965C99.8996 42.9621 100.42 42.2903 101.092 41.6016C102.436 40.2075 103.242 38.7965 103.679 37.0832C103.897 36.2266 103.931 35.3867 103.88 32.968C103.78 29.3903 103.561 28.5672 102.167 26.5012C100.588 24.1832 98.3543 22.7723 95.566 22.3188C94.7094 22.1844 94.0039 22.0164 94.0039 21.9492C94.0039 21.8989 94.3063 21.1262 94.6758 20.2696L95.3477 18.6907L91.7027 15.0289C89.6871 13.0133 87.9738 11.3672 87.8898 11.3672C87.8059 11.3672 86.798 11.9719 85.6391 12.7278L83.5563 14.0715L82.1789 13.4164C81.4398 13.0469 80.2809 12.5766 79.6258 12.375L78.4332 11.9887L77.9797 9.78831C77.7277 8.57893 77.4758 7.45354 77.4422 7.28558C77.3582 7.01682 76.9551 7.00003 72 7.00003C67.0449 7.00003 66.6418 7.01682 66.5578 7.28558ZM75.4434 12.1231L75.9137 14.3907L76.6023 14.5754C78.8531 15.1465 80.9359 15.9864 82.5988 17.011L83.6066 17.6157L85.5551 16.3223L87.5203 15.0457L89.6703 17.1957L91.8203 19.3457L91.0813 21.1094C90.3758 22.7891 90.2918 22.9067 89.4855 23.3938C88.9984 23.6793 88.3098 24.1664 87.9234 24.4688C87.3188 24.9559 87.218 24.9895 87.0836 24.7375C86.6637 23.9817 84.7992 21.8653 83.8754 21.0926C80.8016 18.5059 77.4254 17.0782 73.5453 16.7422C70.5555 16.4735 67.3977 16.9942 64.727 18.1867C61.8715 19.4633 58.8984 21.8653 57.3195 24.1832L56.6645 25.1407L55.9422 24.4688C55.5391 24.0992 54.8672 23.6289 54.4641 23.4274C53.7418 23.0914 53.6746 22.9907 52.9355 21.2102L52.1629 19.3625L54.3129 17.2125L56.4629 15.0625L58.4281 16.3391L60.4102 17.6157L61.4012 16.9942C63.0641 15.9864 65.1469 15.1465 67.3977 14.5754L68.0863 14.3907L68.5566 12.1231L69.027 9.8555H72H74.973L75.4434 12.1231ZM74.9395 19.9168C78.8531 20.7231 82.3469 23.0578 84.5641 26.3836C85.4039 27.6434 85.4207 27.6938 85.1856 28.1641C84.6648 29.1887 84.4297 30.734 84.4297 33.3543C84.4297 37.4864 85.1352 39.4516 87.4027 41.7192C88.0746 42.391 88.6289 43.0125 88.6289 43.0965C88.6289 43.2813 88.4105 43.3485 85.2695 44.1211L83.002 44.6586L80.3984 44.0035C78.4164 43.4996 77.7781 43.2813 77.7445 43.0629C77.7109 42.895 78.0469 42.4414 78.6012 41.9375C79.7266 40.9129 80.5328 39.7203 81.1543 38.1582C81.6078 37.0496 81.6414 36.7977 81.7086 34.043C81.7758 30.7172 81.6078 29.575 80.7176 27.761C78.6012 23.4442 73.898 21.2942 69.3293 22.5707C66.793 23.2594 64.3238 25.3254 63.2152 27.6602C62.3586 29.4742 62.2074 30.4989 62.2914 33.9926C62.3586 36.7977 62.3922 37.0496 62.8457 38.1582C63.4672 39.7203 64.2734 40.9129 65.3988 41.9375C65.9531 42.4414 66.2891 42.895 66.2555 43.0629C66.2219 43.2813 65.5836 43.4996 63.6016 44.0035L60.998 44.6586L58.7305 44.1211C55.6063 43.3653 55.3711 43.2813 55.3711 43.1133C55.3711 43.0293 55.9254 42.4078 56.5973 41.736C58.0082 40.325 58.8816 38.7797 59.3184 36.9489C59.5535 35.9746 59.5871 35.2188 59.5367 32.9176C59.4695 30.3981 59.4023 29.9782 59.016 28.9367C58.5121 27.5594 58.4953 27.593 60.0574 25.527C63.5344 20.9918 69.3965 18.7746 74.9395 19.9168ZM51.407 25.3926C55.3207 26.4172 57.3699 30.5157 56.5469 35.7227C56.2109 37.7551 55.0352 39.5356 53.3723 40.5098L52.5156 41.0137V43.3149V45.616L53.1539 45.784C53.4898 45.868 54.4137 46.1032 55.2031 46.3047C55.9926 46.4895 56.7316 46.691 56.8492 46.7246C56.9836 46.775 56.866 47.0942 56.4461 47.7325C55.7574 48.8242 55.4383 49.7985 55.2871 51.3942C55.1863 52.3684 55.1191 52.5364 54.8 52.6035C52.1629 53.2082 51.4742 53.3594 51.3063 53.3594C51.1887 53.3594 51.1551 52.9395 51.2391 51.9653L51.3566 50.5543L47.7285 48.4547L44.1004 46.3383L45.6289 45.9688L47.1406 45.5992V43.3485V41.1145L46.2672 40.5434C43.9156 39.0485 42.9414 36.9992 42.9414 33.6231C42.9414 30.3645 43.5125 28.6176 45.0242 27.1731C46.9223 25.3926 49.0723 24.7879 51.407 25.3926ZM74.402 25.6446C76.5184 26.4508 78.3324 28.8024 78.7188 31.1875C79.3906 35.5547 78.3156 38.7797 75.5777 40.5434L74.6875 41.1145V43.3485V45.5992L78.8195 46.6239C81.0871 47.195 83.1867 47.7828 83.4891 47.9172C84.2281 48.3035 84.9 48.9754 85.3199 49.7481C85.6559 50.3696 85.6895 50.6551 85.6895 53.6114C85.6895 56.8028 85.6895 56.8028 85.3031 56.8532C85.1016 56.8867 82.9348 56.3325 80.4824 55.6438C78.0301 54.9383 75.5609 54.3 74.9898 54.216C74.402 54.1321 72.7223 53.6785 71.2441 53.1914C66.9105 51.7973 65.718 51.5117 63.5848 51.3942C61.8547 51.3102 59.5367 51.4782 58.4953 51.7973C58.2098 51.8813 58.193 51.8141 58.277 51.1086C58.4785 49.7145 59.3016 48.5387 60.5109 47.9172C60.8133 47.7828 62.9129 47.195 65.1805 46.6239L69.3125 45.5992V43.3485V41.1145L68.4223 40.5434C66.8098 39.5188 65.634 37.7719 65.2812 35.9075C65.0629 34.7653 65.0629 32.2457 65.2812 30.9692C65.7012 28.3489 67.4145 26.3836 70.0684 25.4262C71.177 25.0399 73.0582 25.1239 74.402 25.6446ZM96.893 25.7957C97.4977 26.0813 98.3543 26.6692 98.8078 27.1227C100.42 28.7184 101.059 30.5492 101.059 33.7239C101.059 36.9824 100.051 39.0485 97.7496 40.5434L96.8594 41.1145V43.3485V45.5992L100.135 46.4055C101.932 46.859 103.41 47.2621 103.41 47.3125C103.41 47.3797 89.4688 54.8039 88.9648 55.0055C88.8977 55.0223 88.7969 53.9641 88.7465 52.6539C88.6289 49.9664 88.4273 49.1098 87.5539 47.7325C87.134 47.0942 87.0164 46.775 87.1508 46.7246C87.2684 46.691 88.0074 46.4895 88.7969 46.3047C89.5863 46.1032 90.5102 45.868 90.8629 45.784L91.4844 45.616V43.3149V41.0137L90.6277 40.5098C88.3602 39.1828 87.2852 36.8817 87.2852 33.3711C87.2852 30.4989 87.9066 28.7016 89.3848 27.2235C90.8629 25.7285 92.4082 25.1239 94.4406 25.2078C95.5324 25.2582 96.0195 25.3758 96.893 25.7957ZM37.5832 45.9856C40.3043 47.5645 42.5551 48.8914 42.5887 48.925C42.6895 49.009 37.7008 68.8125 37.5832 68.8125C37.5328 68.8125 36.2227 68.3926 34.6773 67.8719L31.8555 66.9313V55.0223V43.1133H32.2586C32.477 43.1133 34.8789 44.4067 37.5832 45.9856ZM112.145 53.9473V61.5899L100.538 67.4016L88.9145 73.1965L88.4777 72.7934C87.3355 71.752 77.8621 63.2528 77.0391 62.5473C75.8633 61.5395 74.6875 61.086 73.1926 61.086C71.6305 61.086 71.0258 61.3379 67.6328 63.3535C64.1895 65.4028 63.8031 65.5035 62.9465 64.5293C62.325 63.8071 62.2242 62.7321 62.7449 62.077C62.9297 61.8418 64.9957 60.7164 67.6496 59.4063L72.2184 57.1387L73.7469 57.1555C75.141 57.1723 75.6785 57.2899 79.6426 58.4489C83.2707 59.5239 84.1945 59.7422 85.1856 59.7422H86.3781L99.127 53.0235C106.148 49.3282 111.943 46.3047 112.027 46.3047C112.094 46.3047 112.145 49.7481 112.145 53.9473ZM47.191 51.5789C47.8125 51.9317 48.3164 52.3012 48.3164 52.402C48.3164 52.7211 43.2605 70.3914 43.1262 70.5258C43.059 70.6098 42.4375 70.4754 41.732 70.2403L40.4723 69.8035L42.723 60.7836C43.966 55.8285 45.0578 51.4782 45.1418 51.1254C45.3098 50.5039 45.3266 50.4871 45.6793 50.7223C45.8809 50.8399 46.5527 51.243 47.191 51.5789ZM66.625 54.8879C67.6832 55.1735 68.5902 55.4254 68.6238 55.459C68.6574 55.4926 67.0785 56.3157 65.1469 57.2899C63.1984 58.2641 61.334 59.3055 60.998 59.591C59.7719 60.6828 59.2008 62.5473 59.5535 64.311C59.9398 66.1754 61.3676 67.5864 63.232 67.9895C64.8277 68.3254 65.6004 68.0567 68.9934 66.041C70.6227 65.05 72.2184 64.1766 72.5375 64.0758C73.3605 63.8239 74.318 64.143 75.2922 64.9828C77.8117 67.1832 86.2605 74.809 86.6637 75.2457C87.2348 75.9008 87.2684 76.6735 86.7477 77.1606C86.2438 77.5973 85.6727 77.7317 85.152 77.5301C84.9168 77.4461 82.9852 75.9344 80.8688 74.1707C78.7523 72.4071 77.0055 70.9793 76.9887 71.0129C76.9551 71.0465 76.552 71.5504 76.0648 72.1047C75.5777 72.6758 75.1914 73.1797 75.1914 73.2301C75.1914 73.2805 76.7535 74.6243 78.6852 76.2032C80.6 77.7989 82.3301 79.277 82.5484 79.5121C83.3883 80.4192 82.7668 81.7461 81.4902 81.7461C80.852 81.7461 80.5832 81.5614 76.8711 78.4707C74.7043 76.6735 72.8902 75.1953 72.8398 75.2121C72.7895 75.2121 72.3527 75.716 71.8656 76.3207C71.1602 77.211 71.0258 77.4797 71.1938 77.6309C71.3113 77.7485 73.0246 79.1762 74.9898 80.8055C76.9551 82.4516 78.6348 83.9633 78.7188 84.1985C78.9035 84.6688 78.8027 85.0551 78.3324 85.5758C77.8789 86.0797 77.0727 86.0629 76.2832 85.5086C75.3426 84.8703 72.8398 82.7371 72.8398 82.5692C72.8398 82.502 72.5375 82.1325 72.1512 81.7797C71.4793 81.1246 70.673 80.6879 69.7828 80.5032C69.4469 80.4192 69.2957 80.268 69.2285 79.9321C68.859 78.118 67.0785 76.3711 65.5836 76.3711C65.2477 76.3711 65.1637 76.2367 64.9957 75.5481C64.5926 73.8852 63.4168 72.6926 61.7875 72.3063C61.0316 72.1215 60.9141 72.0375 60.9141 71.668C60.8973 70.4586 59.4695 68.695 58.109 68.2414C56.0262 67.536 54.548 68.0735 52.2133 70.425C51.323 71.2985 50.5672 71.9871 50.5 71.9703C50.4328 71.9367 49.509 71.3992 48.4508 70.761L46.5191 69.602L48.3836 63.1352L50.248 56.6516L55.0352 55.5934C57.6723 55.0055 60.3598 54.4512 60.998 54.384C62.7113 54.1657 64.4246 54.3168 66.625 54.8879ZM57.5211 71.3321C58.025 71.8024 58.1258 72.3735 57.8402 72.9446C57.7059 73.2133 56.95 74.0532 56.1605 74.809C54.9512 76.0016 54.6656 76.2032 54.1785 76.2032C53.5402 76.1864 53.1707 75.968 52.8852 75.4137C52.482 74.6746 52.65 74.3387 54.3129 72.659C55.7742 71.1641 55.9926 70.9961 56.5469 70.9961C56.9332 70.9961 57.2859 71.1305 57.5211 71.3321ZM61.2164 75.2121C61.8883 75.4473 62.325 76.3207 62.0898 76.959C62.0059 77.1942 61.25 78.0676 60.4438 78.8907C59.1336 80.2344 58.8816 80.4024 58.3609 80.4024C57.5715 80.4024 56.8828 79.7305 56.8828 78.9578C56.8828 78.4707 57.0844 78.1684 58.193 77.0094C59.3352 75.8168 60.2758 75.0274 60.5949 75.0274C60.6453 75.0274 60.9309 75.1114 61.2164 75.2121ZM65.4996 79.4282C66.0539 79.7137 66.2723 80.0832 66.2891 80.7215C66.2891 81.2086 66.0875 81.4942 64.9117 82.7035C64.1391 83.493 63.2992 84.2489 63.0305 84.3832C62.1234 84.8535 61.082 84.1817 61.082 83.1067C61.082 82.586 61.2668 82.334 62.7281 80.8727C64.4246 79.1762 64.7438 79.0082 65.4996 79.4282ZM70.0516 83.8625C70.3539 84.1649 70.4883 84.484 70.4883 84.8871C70.4883 85.3575 70.2867 85.6598 69.1277 86.8524C67.2465 88.8344 66.4234 89.1367 65.6004 88.1961C64.8445 87.3059 65.1133 86.634 67.0113 84.8032C68.2543 83.6274 68.5566 83.4258 69.027 83.4258C69.4301 83.4258 69.7492 83.5602 70.0516 83.8625ZM74.5195 88.3137C74.9059 89.2207 74.1836 90.1446 73.1086 90.1446C72.7391 90.1446 71.3281 89.2207 71.3281 88.9856C71.3281 88.9184 71.5633 88.6496 71.8488 88.3641C72.1344 88.0953 72.5039 87.625 72.6887 87.3395L73.0246 86.7852L73.6797 87.3059C74.0324 87.5914 74.4188 88.045 74.5195 88.3137Z" fill="white"/>
</g>
<defs>
<linearGradient id="paint0_linear_100_103" x1="50" y1="0" x2="50" y2="100" gradientUnits="userSpaceOnUse">
<stop stop-color="#196E4F"/>
<stop offset="1" stop-color="#3EA07D"/>
</linearGradient>
<clipPath id="clip0_100_103">
<rect width="86" height="86" fill="white" transform="translate(29 7)"/>
</clipPath>
</defs>
</svg>
