<svg width="116" height="100" viewBox="0 0 116 100" fill="none" xmlns="http://www.w3.org/2000/svg">
<circle cx="50" cy="50" r="50" fill="url(#paint0_linear_100_101)"/>
<path d="M45.3962 3.83457C44.4516 4.30683 43.834 4.99707 43.4526 6.03242C43.2528 6.57734 42.726 11.8268 41.7088 23.0885C40.9096 32.0252 40.2557 39.3998 40.2557 39.4725C40.2557 39.5451 38.1305 39.5996 35.5512 39.5996C32.6631 39.5996 30.6288 39.6723 30.32 39.7994C29.6297 40.0537 28.8124 40.8348 28.5217 41.5432C28.1221 42.4514 28.1403 81.4496 28.5399 82.7756C29.103 84.6465 30.4653 85.8998 32.8085 86.699L33.9891 87.0986L55.4227 87.1531L76.8381 87.2076L78.4003 88.7152C80.0532 90.35 80.6344 90.6225 81.9786 90.4045C82.5417 90.3137 82.8686 90.132 83.7405 89.4963C83.8495 89.4055 84.3762 89.5326 84.9938 89.8051C85.9383 90.2229 86.0292 90.3318 86.0292 90.8404C86.0292 91.676 86.5378 92.6023 87.2825 93.1109C87.9182 93.5287 88.0272 93.5469 91.2967 93.5469C94.3301 93.5469 94.7116 93.5105 95.2565 93.1836C95.9831 92.7295 96.528 91.8758 96.6733 90.9131C96.7641 90.2229 96.8368 90.1502 97.7995 89.7687C98.6532 89.4418 98.853 89.4055 99.0891 89.6234C99.9973 90.4045 101.414 90.677 102.486 90.2592C103.231 89.9867 106.9 86.3176 107.299 85.4639C107.481 85.0643 107.644 84.483 107.644 84.1924C107.644 83.6838 107.172 82.5395 106.718 81.9037C106.536 81.6676 106.591 81.3951 106.918 80.6141C107.317 79.6332 107.354 79.5969 108.153 79.5061C109.025 79.4152 109.679 79.0156 110.26 78.2164C110.605 77.7623 110.641 77.4172 110.696 74.6018C110.732 72.6764 110.678 71.2232 110.569 70.8055C110.278 69.8791 109.243 69.0617 108.189 68.9164C107.372 68.8074 107.336 68.7711 106.882 67.7357C106.464 66.7912 106.446 66.6459 106.7 66.4461C107.081 66.1191 107.644 64.8477 107.644 64.2482C107.644 63.4309 107.172 62.559 106.209 61.5236L105.301 60.5609L105.247 51.8604C105.192 42.2152 105.247 42.6693 103.975 41.4705C103.122 40.6531 102.595 40.5078 100.542 40.5078H98.7258L98.8348 39.7268C99.0346 38.1646 100.924 16.5676 100.924 15.7139C100.924 15.1144 100.797 14.5877 100.542 14.1881C100.342 13.843 98.8348 12.2082 97.2001 10.5553L94.2575 7.5582L87.7366 6.97695C84.1401 6.65 78.4003 6.12324 74.9491 5.81445C71.4979 5.50566 64.1415 4.85175 58.6014 4.36133C47.0491 3.32597 46.4678 3.30781 45.3962 3.83457ZM57.5116 7.3584C62.5612 7.8125 71.6796 8.62988 77.7827 9.1748C83.8858 9.71973 88.9899 10.1738 89.1352 10.1738C89.3713 10.1738 89.3713 10.4826 89.1715 12.6623C89.0262 14.0428 88.9536 15.5141 88.9899 15.9318C89.0807 16.7855 89.662 17.6937 90.3522 18.057C90.6247 18.2023 92.3503 18.4566 94.2393 18.6201L97.6542 18.9471L97.5633 19.601C97.5089 19.9643 97.0911 24.4145 96.6551 29.5186C96.201 34.6045 95.7833 39.1637 95.7288 39.6359L95.6198 40.5078H85.7022H75.8028L75.0581 40.9437C74.2407 41.4342 74.0046 41.7793 70.9348 47.2648L69.0458 50.6797H55.7497H42.4354V50.1893C42.4354 49.9168 43.2891 40.1445 44.3426 28.4469C45.9229 10.9549 46.3225 7.14043 46.5587 6.86797C46.7403 6.65 47.1036 6.54102 47.594 6.54102C48.0118 6.54102 52.4801 6.9043 57.5116 7.3584ZM95.3655 13.1709C98.2354 16.2043 98.3626 15.9318 94.3846 15.5686C92.5864 15.3869 92.1141 15.2961 92.1141 15.0781C92.1141 14.9328 92.1868 13.843 92.2776 12.6623C92.3684 11.191 92.4956 10.5371 92.6409 10.5371C92.768 10.5371 94.0032 11.7178 95.3655 13.1709ZM39.8743 43.3596C39.8743 43.741 39.729 45.5211 39.5655 47.3193L39.2567 50.5889L38.294 50.716C37.0407 50.8977 36.4049 51.2428 35.7692 52.0783L35.2606 52.7322L35.2061 68.3352L35.1698 83.9199H34.7338C34.0799 83.9199 32.7721 83.4113 32.2999 82.9572C31.3008 82.0309 31.3553 83.1025 31.3553 62.123V42.6875H35.6239H39.8924L39.8743 43.3596ZM102.014 43.9408C102.123 44.177 102.195 46.7744 102.195 51.1701V58.0361H101.232C100.47 58.0361 100.088 58.1451 99.5069 58.5266L98.7622 59.0352L97.7631 58.6537C96.8368 58.2904 96.7823 58.2359 96.6733 57.5094C96.528 56.5285 95.9831 55.6748 95.2565 55.2207C94.7116 54.8937 94.3301 54.8574 91.3876 54.8574C88.554 54.8574 88.0272 54.8937 87.4823 55.2025C86.7194 55.6021 86.0292 56.7102 86.0292 57.582C86.0292 58.1814 85.9747 58.2359 84.9393 58.6355L83.8495 59.0533L83.2319 58.5811C82.5235 58.0361 81.6153 57.8545 80.6344 58.0361C80.0713 58.1451 79.5446 58.5629 77.8008 60.2703C76.6202 61.451 75.5122 62.6316 75.3669 62.9223C74.9491 63.7396 75.1126 65.3744 75.712 66.1555L76.1842 66.773L75.7846 67.7539C75.4032 68.6984 75.3487 68.7529 74.604 68.8801C73.496 69.0617 72.6786 69.643 72.2426 70.5512C71.8975 71.2232 71.8612 71.6592 71.8612 74.2203C71.8612 76.8723 71.8975 77.1992 72.279 77.9258C72.7331 78.834 73.4596 79.3244 74.5858 79.5242C75.2942 79.6514 75.3669 79.724 75.7665 80.6504L76.1842 81.6494L75.7301 82.2488C75.4758 82.5758 75.2397 83.1752 75.1852 83.5748L75.0762 84.2832H56.676H38.2577V69.0254V53.7676H54.4055C69.518 53.7676 70.5715 53.7494 70.9167 53.4406C71.1165 53.2771 72.4969 50.9885 73.9501 48.3547L76.6202 43.5957H89.226C101.487 43.5957 101.832 43.6139 102.014 43.9408ZM93.6581 58.8717C93.6581 59.4711 93.7307 60.125 93.8397 60.3066C93.9305 60.4883 94.4391 60.7789 94.9659 60.9424C95.4926 61.124 96.637 61.5781 97.4907 61.9596C99.2708 62.777 99.634 62.7406 100.706 61.7053L101.287 61.1422L102.867 62.7043L104.448 64.2846L103.685 65.102C103.267 65.5561 102.922 66.101 102.922 66.3008C102.922 66.5006 103.14 67.1 103.412 67.6268C103.666 68.1535 104.121 69.2252 104.411 70.0244C104.684 70.8236 105.065 71.5865 105.229 71.6955C105.392 71.8227 106.01 71.9316 106.591 71.9316H107.644V74.2021V76.4727H106.591C105.319 76.4727 104.847 76.8178 104.538 77.9803C104.429 78.398 104.012 79.4516 103.612 80.3234C102.758 82.158 102.776 82.5576 103.794 83.484L104.466 84.1016L102.885 85.6818L101.305 87.2621L100.579 86.59C99.6522 85.7545 98.9438 85.7182 97.5089 86.4447C96.9276 86.7354 96.0012 87.1168 95.4563 87.2984C93.9305 87.7707 93.6581 88.1158 93.6581 89.4963V90.6406H91.3876H89.1171V89.6779C89.1171 88.1885 88.8809 87.916 87.119 87.2621C86.2653 86.9715 85.2299 86.5355 84.8122 86.3176C83.6315 85.7 82.9594 85.7908 82.1239 86.6445L81.4155 87.3711L79.8171 85.7908L78.2368 84.2105L78.9452 83.4295C79.8352 82.485 79.8715 81.94 79.145 80.4869C78.8362 79.9057 78.4366 78.8885 78.2186 78.2164C77.7282 76.7451 77.3831 76.4727 76.0026 76.4727H74.9491V74.2021V71.9316H76.0026C77.3831 71.9316 77.7282 71.6592 78.2186 70.1879C78.4366 69.5158 78.8362 68.4986 79.145 67.9174C79.8715 66.4643 79.8352 65.9193 78.9452 64.9748L78.2368 64.1937L79.7626 62.668L81.3065 61.1422L81.8878 61.7053C83.0139 62.7951 83.3954 62.8133 85.4842 61.8143C86.1381 61.5055 87.01 61.1604 87.4278 61.0514C88.6811 60.7062 88.9899 60.343 89.0807 59.0715L89.1534 57.9635L90.0071 57.8908C90.4612 57.8545 91.4784 57.8182 92.2594 57.8L93.6581 57.7637V58.8717Z" fill="white"/>
<path d="M53.9152 20.6364C53.6064 20.7817 53.1523 21.6899 53.1523 22.1622C53.1523 22.3801 53.3703 22.7797 53.6609 23.0522C54.0605 23.47 54.3693 23.5789 55.332 23.6516C55.9859 23.7243 63.1426 24.36 71.2256 25.0866C79.3268 25.8131 86.1746 26.3399 86.4471 26.2672C87.0647 26.1219 87.5551 25.2319 87.3916 24.5235C87.1373 23.361 87.8457 23.47 72.0793 22.0532C56.8215 20.6727 54.2967 20.4729 53.9152 20.6364Z" fill="white"/>
<path d="M53.4065 28.8828C52.4257 29.2824 52.135 30.6084 52.8434 31.3168C53.3702 31.8435 52.7163 31.7709 65.3221 32.8789C70.9712 33.3875 77.7827 34.0051 80.471 34.2412C85.8294 34.7316 86.0655 34.7134 86.5378 33.7326C86.8284 33.115 86.5559 32.0615 86.0292 31.789C85.8294 31.6801 78.8362 30.9898 70.4626 30.2451C62.0889 29.5004 54.9141 28.8465 54.5145 28.8101C54.1149 28.7556 53.6063 28.792 53.4065 28.8828Z" fill="white"/>
<path d="M89.0809 64.9386C87.3553 65.3745 85.8658 66.2464 84.5762 67.5542C82.7053 69.4796 81.8516 71.5321 81.8516 74.2022C81.8516 76.9087 82.7053 78.9794 84.5943 80.8866C90.1707 86.4993 99.5979 83.3751 100.76 75.51C101.414 71.1325 98.6896 66.6823 94.4756 65.211C93.0406 64.7024 90.4795 64.5753 89.0809 64.9386ZM94.1305 68.4806C98.9439 70.8419 98.9076 77.5808 94.0578 79.9602C92.9861 80.487 92.6773 80.5597 91.2969 80.5597C89.9527 80.5597 89.6076 80.487 88.6813 80.0329C83.3592 77.4173 83.8496 69.9518 89.4441 68.0991C90.9336 67.6087 92.641 67.7358 94.1305 68.4806Z" fill="white"/>
<defs>
<linearGradient id="paint0_linear_100_101" x1="50" y1="0" x2="50" y2="100" gradientUnits="userSpaceOnUse">
<stop stop-color="#196E4F"/>
<stop offset="1" stop-color="#3EA07D"/>
</linearGradient>
</defs>
</svg>
